<svg version="1.1" preserveAspectRatio="none" xmlns="http://www.w3.org/2000/svg" width="500" height="500" viewBox="0 0 500 500"><rect width="100%" height="100%" fill="#F7F7F7" fill-opacity="1"/><svg viewBox="162.4141 469.8742 241.7578 200" width="333" height="275.48232156315123" x="83.5px" y="112.2588px" xmlns="http://www.w3.org/2000/svg" xmlns:xlink="http://www.w3.org/1999/xlink" preserveAspectRatio="none"><defs></defs><style>.companyName {fill:#282727;fill-opacity:1;}.icon3-str {stroke:#E17350;stroke-opacity:1;}.shape {fill:#F3CCD5;fill-opacity:0.95;}.shapeStroke-str {stroke:#282727;stroke-opacity:0.1;}</style><g opacity="1" transform="rotate(0 162.4141 469.8742)">
<svg width="140.8789" height="200" x="162.4141" y="469.8742" version="1.1" preserveAspectRatio="none" viewBox="0 0 140.8789 200">
  <defs><rect x="0" y="0" width="140.8789" height="200" rx="0px" ry="0px" id="id-o0jQam8yd1706001000950"></rect></defs><use class="shape shapeStroke-str" style="stroke-width:0;" xlink:href="#id-o0jQam8yd1706001000950"></use>
</svg>
</g><g opacity="1" transform="rotate(0 202.4141 509.8742)">
<svg width="201.7578" height="120" x="202.4141" y="509.8742" version="1.1" preserveAspectRatio="none" viewBox="1.6 -26.88 46 27.36">
  <g transform="matrix(1 0 0 1 0 0)" class="companyName"><path id="id-D6z1nYkh2" d="M2.16 0L1.60-8.36L2.60-8.36Q4.76-1.16 9.92-1.16L9.92-1.16Q12.08-1.16 13.36-2.34Q14.64-3.52 14.64-5.64L14.64-5.64Q14.64-7.48 13.52-8.74Q12.40-10 10.08-10.96L10.08-10.96L9.20-11.32Q5.76-12.72 3.86-14.48Q1.96-16.24 1.96-19.40L1.96-19.40Q1.96-21.52 2.94-23.22Q3.92-24.92 5.80-25.90Q7.68-26.88 10.32-26.88L10.32-26.88Q11.64-26.88 12.56-26.68Q13.48-26.48 14.48-26.12L14.48-26.12Q15.24-25.80 15.68-25.80L15.68-25.80Q15.96-25.80 16.12-25.96Q16.28-26.12 16.40-26.56L16.40-26.56L17.20-26.56L17.60-19.32L16.64-19.32Q16.04-22.24 14.56-23.76Q13.08-25.28 10.84-25.28L10.84-25.28Q8.84-25.28 7.60-24.14Q6.36-23 6.36-21.20L6.36-21.20Q6.36-19.84 7.12-18.86Q7.88-17.88 8.96-17.26Q10.04-16.64 11.68-15.96L11.68-15.96L12.84-15.48Q15.92-14.20 17.62-12.40Q19.32-10.60 19.32-7.56L19.32-7.56Q19.32-4.16 17.06-1.84Q14.80 0.48 9.92 0.48L9.92 0.48Q8.28 0.48 7.24 0.24Q6.20 0 5.24-0.40L5.24-0.40Q5.12-0.44 4.76-0.58Q4.40-0.72 4.08-0.72L4.08-0.72Q3.68-0.72 3.38-0.50Q3.08-0.28 3 0L3 0L2.16 0Z M32.72 0L24.92-23.08Q24.64-23.92 24.36-24.32Q24.08-24.72 23.52-24.90Q22.96-25.08 21.92-25.08L21.92-25.08L21.92-26.40L32.40-26.40L32.40-25.08L30.64-25.08Q29.68-25.08 29.68-24.36L29.68-24.36Q29.68-24.08 29.80-23.72L29.80-23.72L35.96-5.08L36.16-5.08L42-23.20Q42.24-23.92 42.24-24.32L42.24-24.32Q42.24-24.72 42-24.90Q41.76-25.08 41.24-25.08L41.24-25.08L39.32-25.08L39.32-26.40L47.60-26.40L47.60-25.08Q46.20-25.08 45.48-24.60Q44.76-24.12 44.32-22.92L44.32-22.92L36.20 0L32.72 0Z"/></g>
</svg>
</g></svg></svg>